<?xml version="1.0" encoding="utf-8" ?>
<svg baseProfile="full" height="100%" version="1.1" viewBox="0,0,1000,80" width="100%" xmlns="http://www.w3.org/2000/svg" xmlns:ev="http://www.w3.org/2001/xml-events" xmlns:xlink="http://www.w3.org/1999/xlink"><defs /><path d="M0,0 M51.3,34.1 L50.0,42.0 L49.4,50.0 L49.4,50.5 L49.4,50.7 M52.6,33.4 L52.4,33.9 L52.2,34.6 L52.2,35.6 L52.3,36.8 L52.7,38.1 L53.5,39.4 L54.6,40.4 L56.0,41.1 L57.7,41.5 L59.5,41.4 L61.4,40.9 L63.3,40.0 L65.19999999999999,38.9 L67.1,37.5 L74.3,30.2 L74.5,30.0 L74.6,30.2 L73.3,38.3 L73.1,42.8 L73.1,44.8 L73.4,46.5 L73.9,47.699999999999996 L74.6,48.5 L75.19999999999999,49.0 L75.8,49.1 L76.3,49.1 M89.2,39.5 L88.7,39.199999999999996 L87.9,39.0 L86.8,38.9 L85.4,39.0 L83.9,39.4 L82.4,40.199999999999996 L81.19999999999999,41.199999999999996 L80.19999999999999,42.4 L79.6,43.699999999999996 L79.5,44.9 L79.9,46.0 L80.69999999999999,46.8 L81.8,47.3 L83.1,47.4 L84.60000000000001,47.1 L86.0,46.4 L87.3,45.5 L88.5,44.4 L89.4,43.199999999999996 L90.0,42.199999999999996 L90.5,41.4 L90.60000000000001,40.9 L90.7,40.8 L90.60000000000001,41.1 L90.5,41.8 L90.5,42.8 L90.60000000000001,44.0 L90.9,45.3 L91.60000000000001,46.6 L92.7,47.6 L94.10000000000001,48.4 L95.8,48.8 L97.7,48.699999999999996 L99.7,48.3 L101.60000000000001,47.4 L103.2,46.199999999999996 L104.5,44.8 L105.4,43.4 L105.9,42.0 L105.9,40.8 L105.4,39.9 L104.60000000000001,39.4 L103.5,39.3 L102.30000000000001,39.699999999999996 L101.10000000000001,40.4 L100.10000000000001,41.5 L99.4,42.699999999999996 L99.0,44.1 L99.2,45.5 L99.9,46.699999999999996 L101.2,47.699999999999996 L103.0,48.4 L105.0,48.8 L106.9,48.9 L108.5,48.8 L109.7,48.6 M118.7,38.6 L118.0,38.699999999999996 L117.0,38.8 L115.9,38.9 L114.80000000000001,39.3 L114.0,39.699999999999996 L113.7,40.199999999999996 L113.9,40.8 L114.7,41.5 L115.9,42.199999999999996 L120.9,44.4 L122.30000000000001,45.1 L123.30000000000001,45.8 L123.80000000000001,46.4 L123.80000000000001,47.0 L123.10000000000001,47.4 L122.0,47.6 L120.4,47.6 L118.60000000000001,47.4 L116.80000000000001,47.0 L115.2,46.6 L113.9,46.199999999999996 L113.10000000000001,45.8 M130.5,34.1 L129.8,45.199999999999996 M130.0,38.199999999999996 L133.9,38.3 M140.0,41.3 L139.10000000000002,46.3 L139.0,46.8 L138.9,46.9 L138.9,46.6 L138.9,45.9 L139.0,45.0 L139.10000000000002,43.9 L139.4,42.6 L139.8,41.3 L140.5,40.199999999999996 L141.4,39.199999999999996 L142.60000000000002,38.5 L144.10000000000002,38.0 L145.9,37.8 L147.8,37.9 L158.6,39.8 L159.5,40.0 L160.1,40.0 L160.20000000000002,40.0 L160.0,40.0 L159.4,40.1 L158.5,40.3 L157.4,40.6 L156.2,41.1 L155.0,41.9 L153.9,42.699999999999996 L153.1,43.699999999999996 L152.7,44.8 L152.8,45.8 L153.4,46.6 L154.4,47.199999999999996 L155.8,47.6 L157.4,47.6 L159.1,47.199999999999996 L160.70000000000002,46.6 L162.1,45.699999999999996 L163.1,44.6 L163.70000000000002,43.4 L163.9,42.199999999999996 L163.9,41.199999999999996 L163.6,40.5 L163.4,40.0 M186.6,30.799999999999997 L186.5,31.599999999999998 L184.8,37.699999999999996 L182.20000000000002,44.3 L182.1,44.8 L182.1,45.0 L182.3,45.0 L183.5,44.699999999999996 L184.5,44.5 L185.8,44.4 L187.3,44.3 L196.1,45.1 L197.8,45.199999999999996 L199.1,45.199999999999996 L200.20000000000002,45.199999999999996 L201.0,45.1 L201.6,44.9 M202.70000000000002,41.1 L203.20000000000002,41.0 L203.9,40.8 L204.70000000000002,40.5 L205.70000000000002,40.1 L206.70000000000002,39.6 L207.5,39.0 L208.0,38.5 L208.20000000000002,37.9 L208.0,37.4 L207.4,37.1 L206.5,37.1 L205.3,37.3 L204.0,37.699999999999996 L202.6,38.5 L201.4,39.4 L200.5,40.5 L200.0,41.699999999999996 L199.9,42.8 L200.4,43.9 L201.3,44.8 L202.70000000000002,45.5 L204.5,46.0 L206.5,46.1 L208.6,46.0 L210.70000000000002,45.6 L212.4,45.1 L213.8,44.6 L214.70000000000002,44.199999999999996 M215.70000000000002,40.8 L216.1,40.699999999999996 L216.8,40.5 L217.6,40.199999999999996 L218.70000000000002,39.9 L219.8,39.4 L220.70000000000002,39.0 L221.5,38.4 L221.9,37.9 L221.9,37.4 L221.5,37.1 L220.70000000000002,36.9 L219.5,36.9 L218.1,37.199999999999996 L216.70000000000002,37.699999999999996 L215.3,38.5 L214.20000000000002,39.5 L213.6,40.6 L213.5,41.699999999999996 L213.9,42.8 L215.0,43.8 L216.6,44.6 L218.70000000000002,45.199999999999996 L221.1,45.5 L223.5,45.6 L225.70000000000002,45.4 L227.5,45.199999999999996 L228.8,45.0 " fill="none" stroke="black" stroke-linecap="round" stroke-linejoin="round" stroke-width="2" /></svg>